<svg width="360" height="360" viewBox="0 0 360 360" fill="none" xmlns="http://www.w3.org/2000/svg">
<g clip-path="url(#clip0_42_8)">
<g clip-path="url(#clip1_42_8)">
<mask id="mask0_42_8" style="mask-type:luminance" maskUnits="userSpaceOnUse" x="0" y="0" width="360" height="360">
<path d="M360 0H0V360H360V0Z" fill="white"/>
</mask>
<g mask="url(#mask0_42_8)">
<path d="M258.75 236.25H101.25V247.5H258.75V236.25Z" fill="#FFFDF2"/>
<path d="M258.75 247.5H101.25V258.75H258.75V247.5Z" fill="#FFFDF2"/>
<path d="M258.75 258.75H101.25V270H258.75V258.75Z" fill="#FFFDF2"/>
<path d="M258.75 270H101.25V281.25H258.75V270Z" fill="#FFFDF2"/>
<path d="M123.75 281.25H101.25V292.5H123.75V281.25Z" fill="#FFFDF2"/>
<path d="M258.75 281.25H135V292.5H258.75V281.25Z" fill="#FFFDF2"/>
<path d="M123.75 292.5H101.25V303.75H123.75V292.5Z" fill="#FFFDF2"/>
<path d="M258.75 292.5H135V303.75H258.75V292.5Z" fill="#FFFDF2"/>
<path d="M123.75 303.75H101.25V315H123.75V303.75Z" fill="#FFFDF2"/>
<path d="M258.75 303.75H135V315H258.75V303.75Z" fill="#FFFDF2"/>
<path d="M123.75 315H101.25V326.25H123.75V315Z" fill="#FFFDF2"/>
<path d="M258.75 315H135V326.25H258.75V315Z" fill="#FFFDF2"/>
<path d="M123.75 326.25H101.25V337.5H123.75V326.25Z" fill="#FFFDF2"/>
<path d="M258.75 326.25H135V337.5H258.75V326.25Z" fill="#FFFDF2"/>
<path d="M123.75 337.5H101.25V348.75H123.75V337.5Z" fill="#FFFDF2"/>
<path d="M258.75 337.5H135V348.75H258.75V337.5Z" fill="#FFFDF2"/>
<path d="M123.75 348.75H101.25V360H123.75V348.75Z" fill="#FFFDF2"/>
<path d="M258.75 348.75H135V360H258.75V348.75Z" fill="#FFFDF2"/>
<mask id="mask1_42_8" style="mask-type:luminance" maskUnits="userSpaceOnUse" x="0" y="0" width="360" height="360">
<path d="M360 0H0V360H360V0Z" fill="white"/>
</mask>
<g mask="url(#mask1_42_8)">
<path d="M258.75 67.5H101.25V78.75H258.75V67.5Z" fill="#7E5243"/>
<path d="M123.75 78.75H78.75V90H123.75V78.75Z" fill="#4D271B"/>
<path d="M270 78.75H123.75V90H270V78.75Z" fill="#7E5243"/>
<path d="M281.25 78.75H270V90H281.25V78.75Z" fill="#4D271B"/>
<path d="M123.75 90H67.5V101.25H123.75V90Z" fill="#4D271B"/>
<path d="M270 90H123.75V101.25H270V90Z" fill="#7E5243"/>
<path d="M292.5 90H270V101.25H292.5V90Z" fill="#4D271B"/>
<path d="M112.5 101.25H67.5V112.5H112.5V101.25Z" fill="#4D271B"/>
<path d="M270 101.25H112.5V112.5H270V101.25Z" fill="#7E5243"/>
<path d="M292.5 101.25H270V112.5H292.5V101.25Z" fill="#4D271B"/>
<path d="M112.5 112.5H67.5V123.75H112.5V112.5Z" fill="#4D271B"/>
<path d="M270 112.5H112.5V123.75H270V112.5Z" fill="#7E5243"/>
<path d="M292.5 112.5H270V123.75H292.5V112.5Z" fill="#4D271B"/>
<path d="M112.5 123.75H67.5V135H112.5V123.75Z" fill="#4D271B"/>
<path d="M270 123.75H112.5V135H270V123.75Z" fill="#7E5243"/>
<path d="M292.5 123.75H270V135H292.5V123.75Z" fill="#4D271B"/>
<path d="M112.5 135H67.5V146.25H112.5V135Z" fill="#4D271B"/>
<path d="M270 135H112.5V146.25H270V135Z" fill="#7E5243"/>
<path d="M292.5 135H270V146.25H292.5V135Z" fill="#4D271B"/>
<path d="M112.5 146.25H67.5V157.5H112.5V146.25Z" fill="#4D271B"/>
<path d="M270 146.25H112.5V157.5H270V146.25Z" fill="#7E5243"/>
<path d="M292.5 146.25H270V157.5H292.5V146.25Z" fill="#4D271B"/>
<path d="M112.5 157.5H67.5V168.75H112.5V157.5Z" fill="#4D271B"/>
<path d="M157.5 157.5H112.5V168.75H157.5V157.5Z" fill="#7E5243"/>
<path d="M225 157.5H157.5V168.75H225V157.5Z" fill="#F38B7C"/>
<path d="M270 157.5H225V168.75H270V157.5Z" fill="#7E5243"/>
<path d="M292.5 157.5H270V168.75H292.5V157.5Z" fill="#4D271B"/>
<path d="M112.5 168.75H67.5V180H112.5V168.75Z" fill="#4D271B"/>
<path d="M157.5 168.75H112.5V180H157.5V168.75Z" fill="#7E5243"/>
<path d="M225 168.75H157.5V180H225V168.75Z" fill="#F38B7C"/>
<path d="M270 168.75H225V180H270V168.75Z" fill="#7E5243"/>
<path d="M292.5 168.75H270V180H292.5V168.75Z" fill="#4D271B"/>
<path d="M112.5 180H67.5V191.25H112.5V180Z" fill="#4D271B"/>
<path d="M146.25 180H112.5V191.25H146.25V180Z" fill="#7E5243"/>
<path d="M236.25 180H146.25V191.25H236.25V180Z" fill="#F38B7C"/>
<path d="M270 180H236.25V191.25H270V180Z" fill="#7E5243"/>
<path d="M292.5 180H270V191.25H292.5V180Z" fill="#4D271B"/>
<path d="M112.5 191.25H67.5V202.5H112.5V191.25Z" fill="#4D271B"/>
<path d="M123.75 191.25H112.5V202.5H123.75V191.25Z" fill="#7E5243"/>
<path d="M213.75 191.25H123.75V202.5H213.75V191.25Z" fill="#F38B7C"/>
<path d="M236.25 191.25H213.75V202.5H236.25V191.25Z" fill="black"/>
<path d="M258.75 191.25H236.25V202.5H258.75V191.25Z" fill="#343235"/>
<path d="M270 191.25H258.75V202.5H270V191.25Z" fill="#F38B7C"/>
<path d="M292.5 191.25H270V202.5H292.5V191.25Z" fill="#4D271B"/>
<path d="M123.75 202.5H90V213.75H123.75V202.5Z" fill="#7E5243"/>
<path d="M213.75 202.5H123.75V213.75H213.75V202.5Z" fill="#F38B7C"/>
<path d="M258.75 202.5H213.75V213.75H258.75V202.5Z" fill="black"/>
<path d="M270 202.5H258.75V213.75H270V202.5Z" fill="#F38B7C"/>
<path d="M123.75 213.75H90V225H123.75V213.75Z" fill="#7E5243"/>
<path d="M168.75 213.75H123.75V225H168.75V213.75Z" fill="#F38B7C"/>
<path d="M191.25 213.75H168.75V225H191.25V213.75Z" fill="black"/>
<path d="M202.5 213.75H191.25V225H202.5V213.75Z" fill="white"/>
<path d="M236.25 213.75H202.5V225H236.25V213.75Z" fill="black"/>
<path d="M247.5 213.75H236.25V225H247.5V213.75Z" fill="white"/>
<path d="M258.75 213.75H247.5V225H258.75V213.75Z" fill="black"/>
<path d="M270 213.75H258.75V225H270V213.75Z" fill="#F38B7C"/>
<path d="M123.75 225H90V236.25H123.75V225Z" fill="#7E5243"/>
<path d="M270 225H123.75V236.25H270V225Z" fill="#F38B7C"/>
<path d="M180 123.75H112.5V135H180V123.75Z" fill="#F3322C"/>
<path d="M258.75 123.75H191.25V135H258.75V123.75Z" fill="#F3322C"/>
<path d="M123.75 135H112.5V146.25H123.75V135Z" fill="#F3322C"/>
<path d="M146.25 135H123.75V146.25H146.25V135Z" fill="white"/>
<path d="M168.75 135H146.25V146.25H168.75V135Z" fill="black"/>
<path d="M180 135H168.75V146.25H180V135Z" fill="#F3322C"/>
<path d="M202.5 135H191.25V146.25H202.5V135Z" fill="#F3322C"/>
<path d="M225 135H202.5V146.25H225V135Z" fill="white"/>
<path d="M247.5 135H225V146.25H247.5V135Z" fill="black"/>
<path d="M258.75 135H247.5V146.25H258.75V135Z" fill="#F3322C"/>
<path d="M123.75 146.25H78.75V157.5H123.75V146.25Z" fill="#F3322C"/>
<path d="M146.25 146.25H123.75V157.5H146.25V146.25Z" fill="white"/>
<path d="M168.75 146.25H146.25V157.5H168.75V146.25Z" fill="black"/>
<path d="M202.5 146.25H168.75V157.5H202.5V146.25Z" fill="#F3322C"/>
<path d="M225 146.25H202.5V157.5H225V146.25Z" fill="white"/>
<path d="M247.5 146.25H225V157.5H247.5V146.25Z" fill="black"/>
<path d="M258.75 146.25H247.5V157.5H258.75V146.25Z" fill="#F3322C"/>
<path d="M90 157.5H78.75V168.75H90V157.5Z" fill="#F3322C"/>
<path d="M123.75 157.5H112.5V168.75H123.75V157.5Z" fill="#F3322C"/>
<path d="M146.25 157.5H123.75V168.75H146.25V157.5Z" fill="white"/>
<path d="M168.75 157.5H146.25V168.75H168.75V157.5Z" fill="black"/>
<path d="M180 157.5H168.75V168.75H180V157.5Z" fill="#F3322C"/>
<path d="M202.5 157.5H191.25V168.75H202.5V157.5Z" fill="#F3322C"/>
<path d="M225 157.5H202.5V168.75H225V157.5Z" fill="white"/>
<path d="M247.5 157.5H225V168.75H247.5V157.5Z" fill="black"/>
<path d="M258.75 157.5H247.5V168.75H258.75V157.5Z" fill="#F3322C"/>
<path d="M90 168.75H78.75V180H90V168.75Z" fill="#F3322C"/>
<path d="M123.75 168.75H112.5V180H123.75V168.75Z" fill="#F3322C"/>
<path d="M146.25 168.75H123.75V180H146.25V168.75Z" fill="white"/>
<path d="M168.75 168.75H146.25V180H168.75V168.75Z" fill="black"/>
<path d="M180 168.75H168.75V180H180V168.75Z" fill="#F3322C"/>
<path d="M202.5 168.75H191.25V180H202.5V168.75Z" fill="#F3322C"/>
<path d="M225 168.75H202.5V180H225V168.75Z" fill="white"/>
<path d="M247.5 168.75H225V180H247.5V168.75Z" fill="black"/>
<path d="M258.75 168.75H247.5V180H258.75V168.75Z" fill="#F3322C"/>
<path d="M180 180H112.5V191.25H180V180Z" fill="#F3322C"/>
<path d="M258.75 180H191.25V191.25H258.75V180Z" fill="#F3322C"/>
</g>
</g>
</g>
</g>
<defs>
<clipPath id="clip0_42_8">
<rect width="360" height="360" fill="white"/>
</clipPath>
<clipPath id="clip1_42_8">
<rect width="360" height="360" fill="white"/>
</clipPath>
</defs>
</svg>
