<svg width="320" height="320" viewBox="0 0 320 320" fill="none" xmlns="http://www.w3.org/2000/svg">
<g clip-path="url(#clip0_421_21)">
<path d="M230 210H90V220H230V210Z" fill="#FFFDF2"/>
<path d="M230 220H90V230H230V220Z" fill="#FFFDF2"/>
<path d="M230 230H90V240H230V230Z" fill="#FFFDF2"/>
<path d="M230 240H90V250H230V240Z" fill="#FFFDF2"/>
<path d="M110 250H90V260H110V250Z" fill="#FFFDF2"/>
<path d="M230 250H120V260H230V250Z" fill="#FFFDF2"/>
<path d="M110 260H90V270H110V260Z" fill="#FFFDF2"/>
<path d="M230 260H120V270H230V260Z" fill="#FFFDF2"/>
<path d="M110 270H90V280H110V270Z" fill="#FFFDF2"/>
<path d="M230 270H120V280H230V270Z" fill="#FFFDF2"/>
<path d="M110 280H90V290H110V280Z" fill="#FFFDF2"/>
<path d="M230 280H120V290H230V280Z" fill="#FFFDF2"/>
<path d="M110 290H90V300H110V290Z" fill="#FFFDF2"/>
<path d="M230 290H120V300H230V290Z" fill="#FFFDF2"/>
<path d="M110 300H90V310H110V300Z" fill="#FFFDF2"/>
<path d="M230 300H120V310H230V300Z" fill="#FFFDF2"/>
<path d="M110 310H90V320H110V310Z" fill="#FFFDF2"/>
<path d="M230 310H120V320H230V310Z" fill="#FFFDF2"/>
<g clip-path="url(#clip1_421_21)">
<path d="M230 60H90V70H230V60Z" fill="#7E5243"/>
<path d="M110 70H70V80H110V70Z" fill="#4D271B"/>
<path d="M240 70H110V80H240V70Z" fill="#7E5243"/>
<path d="M250 70H240V80H250V70Z" fill="#4D271B"/>
<path d="M110 80H60V90H110V80Z" fill="#4D271B"/>
<path d="M240 80H110V90H240V80Z" fill="#7E5243"/>
<path d="M260 80H240V90H260V80Z" fill="#4D271B"/>
<path d="M100 90H60V100H100V90Z" fill="#4D271B"/>
<path d="M240 90H100V100H240V90Z" fill="#7E5243"/>
<path d="M260 90H240V100H260V90Z" fill="#4D271B"/>
<path d="M100 100H60V110H100V100Z" fill="#4D271B"/>
<path d="M240 100H100V110H240V100Z" fill="#7E5243"/>
<path d="M260 100H240V110H260V100Z" fill="#4D271B"/>
<path d="M100 110H60V120H100V110Z" fill="#4D271B"/>
<path d="M240 110H100V120H240V110Z" fill="#7E5243"/>
<path d="M260 110H240V120H260V110Z" fill="#4D271B"/>
<path d="M100 120H60V130H100V120Z" fill="#4D271B"/>
<path d="M240 120H100V130H240V120Z" fill="#7E5243"/>
<path d="M260 120H240V130H260V120Z" fill="#4D271B"/>
<path d="M100 130H60V140H100V130Z" fill="#4D271B"/>
<path d="M240 130H100V140H240V130Z" fill="#7E5243"/>
<path d="M260 130H240V140H260V130Z" fill="#4D271B"/>
<path d="M100 140H60V150H100V140Z" fill="#4D271B"/>
<path d="M140 140H100V150H140V140Z" fill="#7E5243"/>
<path d="M200 140H140V150H200V140Z" fill="#F38B7C"/>
<path d="M240 140H200V150H240V140Z" fill="#7E5243"/>
<path d="M260 140H240V150H260V140Z" fill="#4D271B"/>
<path d="M100 150H60V160H100V150Z" fill="#4D271B"/>
<path d="M140 150H100V160H140V150Z" fill="#7E5243"/>
<path d="M200 150H140V160H200V150Z" fill="#F38B7C"/>
<path d="M240 150H200V160H240V150Z" fill="#7E5243"/>
<path d="M260 150H240V160H260V150Z" fill="#4D271B"/>
<path d="M100 160H60V170H100V160Z" fill="#4D271B"/>
<path d="M130 160H100V170H130V160Z" fill="#7E5243"/>
<path d="M210 160H130V170H210V160Z" fill="#F38B7C"/>
<path d="M240 160H210V170H240V160Z" fill="#7E5243"/>
<path d="M260 160H240V170H260V160Z" fill="#4D271B"/>
<path d="M100 170H60V180H100V170Z" fill="#4D271B"/>
<path d="M110 170H100V180H110V170Z" fill="#7E5243"/>
<path d="M190 170H110V180H190V170Z" fill="#F38B7C"/>
<path d="M210 170H190V180H210V170Z" fill="black"/>
<path d="M230 170H210V180H230V170Z" fill="#343235"/>
<path d="M240 170H230V180H240V170Z" fill="#F38B7C"/>
<path d="M260 170H240V180H260V170Z" fill="#4D271B"/>
<path d="M110 180H80V190H110V180Z" fill="#7E5243"/>
<path d="M190 180H110V190H190V180Z" fill="#F38B7C"/>
<path d="M230 180H190V190H230V180Z" fill="black"/>
<path d="M240 180H230V190H240V180Z" fill="#F38B7C"/>
<path d="M110 190H80V200H110V190Z" fill="#7E5243"/>
<path d="M150 190H110V200H150V190Z" fill="#F38B7C"/>
<path d="M170 190H150V200H170V190Z" fill="black"/>
<path d="M180 190H170V200H180V190Z" fill="white"/>
<path d="M210 190H180V200H210V190Z" fill="black"/>
<path d="M220 190H210V200H220V190Z" fill="white"/>
<path d="M230 190H220V200H230V190Z" fill="black"/>
<path d="M240 190H230V200H240V190Z" fill="#F38B7C"/>
<path d="M110 200H80V210H110V200Z" fill="#7E5243"/>
<path d="M240 200H110V210H240V200Z" fill="#F38B7C"/>
<path d="M160 110H100V120H160V110Z" fill="#F3322C"/>
<path d="M230 110H170V120H230V110Z" fill="#F3322C"/>
<path d="M110 120H100V130H110V120Z" fill="#F3322C"/>
<path d="M130 120H110V130H130V120Z" fill="white"/>
<path d="M150 120H130V130H150V120Z" fill="black"/>
<path d="M160 120H150V130H160V120Z" fill="#F3322C"/>
<path d="M180 120H170V130H180V120Z" fill="#F3322C"/>
<path d="M200 120H180V130H200V120Z" fill="white"/>
<path d="M220 120H200V130H220V120Z" fill="black"/>
<path d="M230 120H220V130H230V120Z" fill="#F3322C"/>
<path d="M110 130H70V140H110V130Z" fill="#F3322C"/>
<path d="M130 130H110V140H130V130Z" fill="white"/>
<path d="M150 130H130V140H150V130Z" fill="black"/>
<path d="M180 130H150V140H180V130Z" fill="#F3322C"/>
<path d="M200 130H180V140H200V130Z" fill="white"/>
<path d="M220 130H200V140H220V130Z" fill="black"/>
<path d="M230 130H220V140H230V130Z" fill="#F3322C"/>
<path d="M80 140H70V150H80V140Z" fill="#F3322C"/>
<path d="M110 140H100V150H110V140Z" fill="#F3322C"/>
<path d="M130 140H110V150H130V140Z" fill="white"/>
<path d="M150 140H130V150H150V140Z" fill="black"/>
<path d="M160 140H150V150H160V140Z" fill="#F3322C"/>
<path d="M180 140H170V150H180V140Z" fill="#F3322C"/>
<path d="M200 140H180V150H200V140Z" fill="white"/>
<path d="M220 140H200V150H220V140Z" fill="black"/>
<path d="M230 140H220V150H230V140Z" fill="#F3322C"/>
<path d="M80 150H70V160H80V150Z" fill="#F3322C"/>
<path d="M110 150H100V160H110V150Z" fill="#F3322C"/>
<path d="M130 150H110V160H130V150Z" fill="white"/>
<path d="M150 150H130V160H150V150Z" fill="black"/>
<path d="M160 150H150V160H160V150Z" fill="#F3322C"/>
<path d="M180 150H170V160H180V150Z" fill="#F3322C"/>
<path d="M200 150H180V160H200V150Z" fill="white"/>
<path d="M220 150H200V160H220V150Z" fill="black"/>
<path d="M230 150H220V160H230V150Z" fill="#F3322C"/>
<path d="M160 160H100V170H160V160Z" fill="#F3322C"/>
<path d="M230 160H170V170H230V160Z" fill="#F3322C"/>
</g>
</g>
<defs>
<clipPath id="clip0_421_21">
<rect width="320" height="320" fill="white"/>
</clipPath>
<clipPath id="clip1_421_21">
<rect width="320" height="320" fill="white"/>
</clipPath>
</defs>
</svg>
