<svg width="360" height="360" viewBox="0 0 360 360" fill="none" xmlns="http://www.w3.org/2000/svg">
<g clip-path="url(#clip0_42_7)">
<path d="M299.836 182.245C299.836 172.413 299.02 165.237 297.254 157.796H182.39V202.176H249.812C248.453 213.205 241.113 229.815 224.801 240.976L224.572 242.461L260.89 269.963L263.406 270.209C286.514 249.347 299.836 218.653 299.836 182.245Z" fill="#4285F4"/>
<path d="M182.39 299.176C215.421 299.176 243.151 288.545 263.406 270.209L224.801 240.976C214.47 248.018 200.604 252.934 182.39 252.934C150.038 252.934 122.579 232.074 112.791 203.24L111.356 203.359L73.5924 231.927L73.0985 233.269C93.2165 272.334 134.541 299.176 182.39 299.176Z" fill="#34A853"/>
<path d="M112.79 203.24C110.207 195.799 108.713 187.826 108.713 179.588C108.713 171.349 110.207 163.377 112.654 155.936L112.586 154.351L74.3485 125.324L73.0974 125.906C64.8058 142.117 60.0481 160.321 60.0481 179.588C60.0481 198.855 64.8058 217.058 73.0974 233.269L112.79 203.24Z" fill="#FBBC05"/>
<path d="M182.39 106.24C205.362 106.24 220.858 115.94 229.694 124.046L264.221 91.0928C243.016 71.826 215.421 60 182.39 60C134.541 60 93.2165 86.8406 73.0985 125.906L112.655 155.936C122.579 127.102 150.038 106.24 182.39 106.24Z" fill="#EB4335"/>
</g>
<defs>
<clipPath id="clip0_42_7">
<rect width="240" height="240" fill="white" transform="translate(60 60)"/>
</clipPath>
</defs>
</svg>
