<svg width="320" height="320" viewBox="0 0 320 320" fill="none" xmlns="http://www.w3.org/2000/svg">
<g clip-path="url(#clip0_414_52)">
<g clip-path="url(#clip1_414_52)">
<path d="M200 50H120V60H200V50Z" fill="#FF82AD"/>
<path d="M120 60H90V70H120V60Z" fill="#FF82AD"/>
<path d="M150 60H120V70H150V60Z" fill="#FF638D"/>
<path d="M160 60H150V70H160V60Z" fill="#FF82AD"/>
<path d="M200 60H160V70H200V60Z" fill="#FF638D"/>
<path d="M230 60H200V70H230V60Z" fill="#FF82AD"/>
<path d="M90 70H80V80H90V70Z" fill="#FF82AD"/>
<path d="M120 70H90V80H120V70Z" fill="#FF638D"/>
<path d="M150 70H120V80H150V70Z" fill="#FF82AD"/>
<path d="M160 70H150V80H160V70Z" fill="#FF638D"/>
<path d="M200 70H160V80H200V70Z" fill="#FF82AD"/>
<path d="M230 70H200V80H230V70Z" fill="#FF638D"/>
<path d="M240 70H230V80H240V70Z" fill="#FF82AD"/>
<path d="M80 80H70V90H80V80Z" fill="#FF82AD"/>
<path d="M90 80H80V90H90V80Z" fill="#FF638D"/>
<path d="M110 80H90V90H110V80Z" fill="#FF82AD"/>
<path d="M120 80H110V90H120V80Z" fill="#FF638D"/>
<path d="M130 80H120V90H130V80Z" fill="#FF82AD"/>
<path d="M140 80H130V90H140V80Z" fill="#FF638D"/>
<path d="M150 80H140V90H150V80Z" fill="#FF82AD"/>
<path d="M160 80H150V90H160V80Z" fill="#FF638D"/>
<path d="M170 80H160V90H170V80Z" fill="#FF82AD"/>
<path d="M180 80H170V90H180V80Z" fill="#FF638D"/>
<path d="M200 80H180V90H200V80Z" fill="#FF82AD"/>
<path d="M210 80H200V90H210V80Z" fill="#FF638D"/>
<path d="M230 80H210V90H230V80Z" fill="#FF82AD"/>
<path d="M240 80H230V90H240V80Z" fill="#FF638D"/>
<path d="M250 80H240V90H250V80Z" fill="#FF82AD"/>
<path d="M80 90H70V100H80V90Z" fill="#FF82AD"/>
<path d="M90 90H80V100H90V90Z" fill="#FF638D"/>
<path d="M100 90H90V100H100V90Z" fill="#FF82AD"/>
<path d="M110 90H100V100H110V90Z" fill="#FF638D"/>
<path d="M130 90H110V100H130V90Z" fill="#FF82AD"/>
<path d="M140 90H130V100H140V90Z" fill="#FF638D"/>
<path d="M160 90H140V100H160V90Z" fill="#FF82AD"/>
<path d="M170 90H160V100H170V90Z" fill="#FF638D"/>
<path d="M190 90H170V100H190V90Z" fill="#FF82AD"/>
<path d="M200 90H190V100H200V90Z" fill="#FF638D"/>
<path d="M250 90H200V100H250V90Z" fill="#FF82AD"/>
<path d="M120 100H60V110H120V100Z" fill="#FF82AD"/>
<path d="M130 100H120V110H130V100Z" fill="#FF638D"/>
<path d="M160 100H130V110H160V100Z" fill="#FF82AD"/>
<path d="M170 100H160V110H170V100Z" fill="#FF638D"/>
<path d="M190 100H170V110H190V100Z" fill="#FF82AD"/>
<path d="M200 100H190V110H200V100Z" fill="#FF638D"/>
<path d="M220 100H200V110H220V100Z" fill="#FF82AD"/>
<path d="M230 100H220V110H230V100Z" fill="#FF638D"/>
<path d="M240 100H230V110H240V100Z" fill="#FF82AD"/>
<path d="M250 100H240V110H250V100Z" fill="#FF638D"/>
<path d="M260 100H250V110H260V100Z" fill="#FF82AD"/>
<path d="M70 110H60V120H70V110Z" fill="#FF82AD"/>
<path d="M80 110H70V120H80V110Z" fill="#FF638D"/>
<path d="M120 110H80V120H120V110Z" fill="#FF82AD"/>
<path d="M130 110H120V120H130V110Z" fill="#FF638D"/>
<path d="M190 110H130V120H190V110Z" fill="#FF82AD"/>
<path d="M200 110H190V120H200V110Z" fill="#FF638D"/>
<path d="M240 110H200V120H240V110Z" fill="#FF82AD"/>
<path d="M250 110H240V120H250V110Z" fill="#FF638D"/>
<path d="M260 110H250V120H260V110Z" fill="#FF82AD"/>
<path d="M70 120H60V130H70V120Z" fill="#FF82AD"/>
<path d="M80 120H70V130H80V120Z" fill="#FF638D"/>
<path d="M100 120H80V130H100V120Z" fill="#FF82AD"/>
<path d="M110 120H100V130H110V120Z" fill="#FF638D"/>
<path d="M130 120H110V130H130V120Z" fill="#FF82AD"/>
<path d="M140 120H130V130H140V120Z" fill="#FF638D"/>
<path d="M170 120H140V130H170V120Z" fill="#FF82AD"/>
<path d="M180 120H170V130H180V120Z" fill="#FF638D"/>
<path d="M240 120H180V130H240V120Z" fill="#FF82AD"/>
<path d="M250 120H240V130H250V120Z" fill="#FF638D"/>
<path d="M260 120H250V130H260V120Z" fill="#FF82AD"/>
<path d="M100 130H60V140H100V130Z" fill="#FF82AD"/>
<path d="M110 130H100V140H110V130Z" fill="#FF638D"/>
<path d="M130 130H110V140H130V130Z" fill="#FF82AD"/>
<path d="M140 130H130V140H140V130Z" fill="#FF638D"/>
<path d="M180 130H140V140H180V130Z" fill="#FF82AD"/>
<path d="M190 130H180V140H190V130Z" fill="#FF638D"/>
<path d="M200 130H190V140H200V130Z" fill="#FF82AD"/>
<path d="M220 130H200V140H220V130Z" fill="#FF638D"/>
<path d="M240 130H220V140H240V130Z" fill="#FF82AD"/>
<path d="M250 130H240V140H250V130Z" fill="#FF638D"/>
<path d="M260 130H250V140H260V130Z" fill="#FF82AD"/>
<path d="M70 140H60V150H70V140Z" fill="#FF82AD"/>
<path d="M80 140H70V150H80V140Z" fill="#FF638D"/>
<path d="M100 140H80V150H100V140Z" fill="#FF82AD"/>
<path d="M110 140H100V150H110V140Z" fill="#FF638D"/>
<path d="M140 140H110V150H140V140Z" fill="#FF82AD"/>
<path d="M150 140H140V150H150V140Z" fill="#FF638D"/>
<path d="M240 140H150V150H240V140Z" fill="#FF82AD"/>
<path d="M250 140H240V150H250V140Z" fill="#FF638D"/>
<path d="M260 140H250V150H260V140Z" fill="#FF82AD"/>
<path d="M70 150H60V160H70V150Z" fill="#FF82AD"/>
<path d="M80 150H70V160H80V150Z" fill="#FF638D"/>
<path d="M110 150H80V160H110V150Z" fill="#FF82AD"/>
<path d="M120 150H110V160H120V150Z" fill="#FF638D"/>
<path d="M170 150H120V160H170V150Z" fill="#FF82AD"/>
<path d="M180 150H170V160H180V150Z" fill="#FF638D"/>
<path d="M240 150H180V160H240V150Z" fill="#FF82AD"/>
<path d="M250 150H240V160H250V150Z" fill="#FF638D"/>
<path d="M260 150H250V160H260V150Z" fill="#FF82AD"/>
<path d="M120 160H60V170H120V160Z" fill="#FF82AD"/>
<path d="M130 160H120V170H130V160Z" fill="#FF638D"/>
<path d="M180 160H130V170H180V160Z" fill="#FF82AD"/>
<path d="M200 160H180V170H200V160Z" fill="#FF638D"/>
<path d="M240 160H200V170H240V160Z" fill="#FF82AD"/>
<path d="M250 160H240V170H250V160Z" fill="#FF638D"/>
<path d="M260 160H250V170H260V160Z" fill="#FF82AD"/>
<path d="M250 170H70V180H250V170Z" fill="#FF82AD"/>
<path d="M80 180H70V190H80V180Z" fill="#FF82AD"/>
<path d="M90 180H80V190H90V180Z" fill="#FF638D"/>
<path d="M120 180H90V190H120V180Z" fill="#FF82AD"/>
<path d="M140 180H120V190H140V180Z" fill="#FF638D"/>
<path d="M160 180H140V190H160V180Z" fill="#FF82AD"/>
<path d="M170 180H160V190H170V180Z" fill="#FF638D"/>
<path d="M220 180H170V190H220V180Z" fill="#FF82AD"/>
<path d="M240 180H220V190H240V180Z" fill="#FF638D"/>
<path d="M250 180H240V190H250V180Z" fill="#FF82AD"/>
<path d="M90 190H80V200H90V190Z" fill="#FF82AD"/>
<path d="M100 190H90V200H100V190Z" fill="#FF638D"/>
<path d="M110 190H100V200H110V190Z" fill="#FF82AD"/>
<path d="M120 190H110V200H120V190Z" fill="#FF638D"/>
<path d="M140 190H120V200H140V190Z" fill="#FF82AD"/>
<path d="M160 190H140V200H160V190Z" fill="#FF638D"/>
<path d="M200 190H160V200H200V190Z" fill="#FF82AD"/>
<path d="M220 190H200V200H220V190Z" fill="#FF638D"/>
<path d="M240 190H220V200H240V190Z" fill="#FF82AD"/>
<path d="M230 200H90V210H230V200Z" fill="#FF82AD"/>
<path d="M160 110H100V120H160V110Z" fill="black"/>
<path d="M230 110H170V120H230V110Z" fill="black"/>
<path d="M110 120H100V130H110V120Z" fill="black"/>
<path d="M130 120H110V130H130V120Z" fill="white"/>
<path d="M160 120H130V130H160V120Z" fill="black"/>
<path d="M180 120H170V130H180V120Z" fill="black"/>
<path d="M200 120H180V130H200V120Z" fill="white"/>
<path d="M230 120H200V130H230V120Z" fill="black"/>
<path d="M110 130H70V140H110V130Z" fill="black"/>
<path d="M130 130H110V140H130V130Z" fill="white"/>
<path d="M180 130H130V140H180V130Z" fill="black"/>
<path d="M200 130H180V140H200V130Z" fill="white"/>
<path d="M230 130H200V140H230V130Z" fill="black"/>
<path d="M80 140H70V150H80V140Z" fill="black"/>
<path d="M110 140H100V150H110V140Z" fill="black"/>
<path d="M130 140H110V150H130V140Z" fill="white"/>
<path d="M160 140H130V150H160V140Z" fill="black"/>
<path d="M180 140H170V150H180V140Z" fill="black"/>
<path d="M200 140H180V150H200V140Z" fill="white"/>
<path d="M230 140H200V150H230V140Z" fill="black"/>
<path d="M80 150H70V160H80V150Z" fill="black"/>
<path d="M110 150H100V160H110V150Z" fill="black"/>
<path d="M130 150H110V160H130V150Z" fill="white"/>
<path d="M160 150H130V160H160V150Z" fill="black"/>
<path d="M180 150H170V160H180V150Z" fill="black"/>
<path d="M200 150H180V160H200V150Z" fill="white"/>
<path d="M230 150H200V160H230V150Z" fill="black"/>
<path d="M160 160H100V170H160V160Z" fill="black"/>
<path d="M230 160H170V170H230V160Z" fill="black"/>
<path d="M230 210H90V220H230V210Z" fill="#FFFDF2"/>
<path d="M230 220H90V230H230V220Z" fill="#FFFDF2"/>
<path d="M230 230H90V240H230V230Z" fill="#FFFDF2"/>
<path d="M230 240H90V250H230V240Z" fill="#FFFDF2"/>
<path d="M110 250H90V260H110V250Z" fill="#FFFDF2"/>
<path d="M230 250H120V260H230V250Z" fill="#FFFDF2"/>
<path d="M110 260H90V270H110V260Z" fill="#FFFDF2"/>
<path d="M230 260H120V270H230V260Z" fill="#FFFDF2"/>
<path d="M110 270H90V280H110V270Z" fill="#FFFDF2"/>
<path d="M230 270H120V280H230V270Z" fill="#FFFDF2"/>
<path d="M110 280H90V290H110V280Z" fill="#FFFDF2"/>
<path d="M230 280H120V290H230V280Z" fill="#FFFDF2"/>
<path d="M110 290H90V300H110V290Z" fill="#FFFDF2"/>
<path d="M230 290H120V300H230V290Z" fill="#FFFDF2"/>
<path d="M110 300H90V310H110V300Z" fill="#FFFDF2"/>
<path d="M230 300H120V310H230V300Z" fill="#FFFDF2"/>
<path d="M110 310H90V320H110V310Z" fill="#FFFDF2"/>
<path d="M230 310H120V320H230V310Z" fill="#FFFDF2"/>
<path d="M140 220H130V230H140V220Z" fill="#FFC110"/>
<path d="M150 230H120V240H150V230Z" fill="#FFC110"/>
<path d="M170 230H160V240H170V230Z" fill="#FFC110"/>
<path d="M200 230H190V240H200V230Z" fill="#FFC110"/>
<path d="M140 240H130V250H140V240Z" fill="#FFC110"/>
<path d="M170 240H160V250H170V240Z" fill="#FFC110"/>
<path d="M180 250H150V260H180V250Z" fill="#FFC110"/>
<path d="M200 260H130V270H200V260Z" fill="#FFC110"/>
<path d="M180 270H150V280H180V270Z" fill="#FFC110"/>
<path d="M170 280H160V290H170V280Z" fill="#FFC110"/>
<path d="M170 290H160V300H170V290Z" fill="#FFC110"/>
</g>
</g>
<defs>
<clipPath id="clip0_414_52">
<rect width="320" height="320" fill="white"/>
</clipPath>
<clipPath id="clip1_414_52">
<rect width="320" height="320" fill="white"/>
</clipPath>
</defs>
</svg>
