<svg width="26" height="24" viewBox="0 0 26 24" fill="none" xmlns="http://www.w3.org/2000/svg">
<g clip-path="url(#clip0_79_2)">
<path d="M25.0067 0L14.022 8.1279L16.0647 3.3379L25.0067 0Z" fill="#E17726"/>
<path d="M0.619245 0.00964355L9.53735 3.33854L11.4769 8.19134L0.619245 0.00964355ZM20.5861 17.2858L25.4412 17.3782L23.7444 23.1424L17.8201 21.5113L20.5861 17.2858ZM5.01405 17.2858L7.76974 21.5113L1.85545 23.1425L0.168945 17.3782L5.01405 17.2858Z" fill="#E27625"/>
<path d="M11.2133 6.95517L11.4117 13.3635L5.47461 13.0934L7.16341 10.5456L7.18481 10.5211L11.2133 6.95517ZM14.3256 6.88367L18.4156 10.5213L18.4368 10.5457L20.1256 13.0935L14.1898 13.3635L14.3256 6.88367ZM7.94371 17.3044L11.1855 19.8303L7.41971 21.6484L7.94371 17.3044ZM17.6573 17.304L18.1704 21.6485L14.4151 19.8301L17.6573 17.304Z" fill="#E27625"/>
<path d="M14.498 19.5922L18.3087 21.4374L14.764 23.122L14.8008 22.0086L14.498 19.5922ZM11.1013 19.593L10.8104 21.9904L10.8343 23.1207L7.28125 21.4374L11.1013 19.593Z" fill="#D5BFB2"/>
<path d="M10.0005 14.2L10.9963 16.2928L7.60596 15.2996L10.0005 14.2ZM15.599 14.2002L18.0048 15.2996L14.6034 16.2925L15.599 14.2002Z" fill="#233447"/>
<path d="M8.20259 17.283L7.65459 21.787L4.71729 17.3815L8.20259 17.283ZM17.3976 17.2831L20.883 17.3815L17.9347 21.7872L17.3976 17.2831ZM20.2112 12.8387L17.6747 15.4238L15.719 14.5301L14.7827 16.4985L14.1689 13.1136L20.2112 12.8387ZM5.38749 12.8387L11.431 13.1136L10.8171 16.4985L9.88059 14.5304L7.93529 15.4239L5.38749 12.8387Z" fill="#CC6228"/>
<path d="M5.2168 12.3082L8.0866 15.2203L8.186 18.0952L5.2168 12.3082ZM20.3865 12.303L17.4119 18.1003L17.5239 15.2203L20.3865 12.303ZM11.2909 12.4856L11.4064 13.2126L11.6918 15.0237L11.5083 20.5862L10.6408 16.1177L10.6405 16.0715L11.2909 12.4856ZM14.308 12.4755L14.9601 16.0715L14.9598 16.1177L14.0901 20.5974L14.0557 19.4769L13.92 14.9907L14.308 12.4755Z" fill="#E27525"/>
<path d="M17.7786 15.1046L17.6815 17.6024L14.6541 19.9611L14.0421 19.5287L14.7281 15.9952L17.7786 15.1046ZM7.83154 15.1046L10.8714 15.9952L11.5574 19.5287L10.9454 19.9611L7.91794 17.6022L7.83154 15.1046Z" fill="#F5841F"/>
<path d="M6.70166 20.8857L10.5749 22.7209L10.5585 21.9372L10.8826 21.6527H14.716L15.0518 21.9362L15.027 22.7193L18.8757 20.8903L17.0029 22.4379L14.7384 23.9932H10.8515L8.58846 22.4315L6.70166 20.8857Z" fill="#C0AC9D"/>
<path d="M14.2206 19.3479L14.7682 19.7348L15.0891 22.2952L14.6247 21.9031H10.9771L10.5215 22.3031L10.8319 19.735L11.3797 19.3479H14.2206Z" fill="#161616"/>
<path d="M24.2814 0.224976L25.6 4.18068L24.7765 8.18038L25.3629 8.63268L24.5694 9.23807L25.1658 9.69867L24.3761 10.4178L24.8609 10.7689L23.5743 12.2715L18.2973 10.735L18.2516 10.7105L14.4489 7.50268L24.2814 0.224976ZM1.3186 0.224976L11.1512 7.50268L7.3484 10.7105L7.3027 10.735L2.0257 12.2715L0.7391 10.7689L1.2235 10.4181L0.4343 9.69867L1.0295 9.23858L0.2241 8.63148L0.8326 8.17888L0 4.18088L1.3186 0.224976Z" fill="#763E1A"/>
<path d="M18.0392 10.399L23.6305 12.0269L25.447 17.6255H20.6546L17.3526 17.6671L19.754 12.9863L18.0392 10.399ZM7.56079 10.399L5.84569 12.9863L8.24739 17.6671L4.94689 17.6255H0.163086L1.96939 12.027L7.56079 10.399ZM16.3384 3.31116L14.7745 7.53506L14.4426 13.2411L14.3156 15.0296L14.3055 19.5984H11.2944L11.2846 15.0382L11.1572 13.2396L10.8252 7.53506L9.26149 3.31116H16.3384Z" fill="#F5841F"/>
</g>
<defs>
<clipPath id="clip0_79_2">
<rect width="25.6" height="24" fill="white"/>
</clipPath>
</defs>
</svg>
