<svg width="24" height="24" viewBox="0 0 24 24" fill="none" xmlns="http://www.w3.org/2000/svg">
<path d="M23.0064 7.31101C22.3949 5.89474 21.5541 4.59332 20.4459 3.48324C19.3376 2.3732 18.0764 1.5311 16.6242 0.918658C15.172 0.306221 13.6051 0 11.9618 0C10.3567 0 8.78983 0.306222 7.29938 0.956939C5.88537 1.56938 4.58599 2.41148 3.47768 3.52152C2.36944 4.6316 1.52864 5.89474 0.917171 7.34929C0.305702 8.80383 0 10.3732 0 11.9809C0 13.5885 0.305701 15.1579 0.955425 16.6507C1.56689 18.067 2.40763 19.3684 3.51593 20.4785C4.62418 21.5885 5.88537 22.4306 7.33757 23.043C8.82802 23.6555 10.3949 24 12 24C13.6051 24 15.172 23.6938 16.6624 23.043C18.0764 22.4306 19.3758 21.5885 20.4841 20.4785C21.5924 19.3684 22.4331 18.1053 23.0446 16.6507C23.656 15.1579 24 13.5885 24 11.9809C23.9618 10.3732 23.656 8.80383 23.0064 7.31101ZM7.98729 10.8708C8.48407 8.95696 10.242 7.54069 12.3057 7.54069H20.6369C21.172 8.57415 21.5159 9.68423 21.6306 10.8708H7.98729ZM21.6306 13.1292C21.4777 14.3158 21.172 15.4259 20.6369 16.4593H12.3057C10.242 16.4593 8.48407 15.043 7.98729 13.1292H21.6306ZM5.08283 5.09091C6.91717 3.25359 9.36305 2.22009 11.9618 2.22009C14.5605 2.22009 17.0064 3.21531 18.8408 5.09091C18.879 5.12919 18.9554 5.20575 18.9936 5.24403H12.3057C10.5095 5.24403 8.82802 5.93302 7.5669 7.19616C6.57322 8.1914 5.92356 9.45454 5.6943 10.8325H2.33118C2.56051 8.68899 3.51593 6.69858 5.08283 5.09091ZM11.9618 21.7416C9.36305 21.7416 6.91717 20.7464 5.08283 18.8708C3.51593 17.3014 2.56051 15.311 2.33118 13.1292H5.73249C5.96181 14.5072 6.61147 15.7703 7.60508 16.7656C8.86621 18.0287 10.5478 18.7177 12.344 18.7177H19.0701C19.0319 18.7942 18.9554 18.8325 18.9172 18.8708C17.0064 20.7082 14.5605 21.7416 11.9618 21.7416Z" fill="white"/>
</svg>
