<svg width="360" height="360" viewBox="0 0 360 360" fill="none" xmlns="http://www.w3.org/2000/svg">
<g clip-path="url(#clip0_42_138)">
<path d="M290.064 133.11C283.949 118.947 275.541 105.933 264.459 94.8324C253.376 83.732 240.764 75.311 226.242 69.1866C211.72 63.0622 196.051 60 179.618 60C163.567 60 147.898 63.0622 132.994 69.5694C118.854 75.6938 105.86 84.1148 94.7768 95.2152C83.6944 106.316 75.2864 118.947 69.1717 133.493C63.057 148.038 60 163.732 60 179.809C60 195.885 63.057 211.579 69.5543 226.507C75.6689 240.67 84.0763 253.684 95.1593 264.785C106.242 275.885 118.854 284.306 133.376 290.43C148.28 296.555 163.949 300 180 300C196.051 300 211.72 296.938 226.624 290.43C240.764 284.306 253.758 275.885 264.841 264.785C275.924 253.684 284.331 241.053 290.446 226.507C296.56 211.579 300 195.885 300 179.809C299.618 163.732 296.56 148.038 290.064 133.11ZM139.873 168.708C144.841 149.57 162.42 135.407 183.057 135.407H266.369C271.72 145.741 275.159 156.842 276.306 168.708H139.873ZM276.306 191.292C274.777 203.158 271.72 214.259 266.369 224.593H183.057C162.42 224.593 144.841 210.43 139.873 191.292H276.306ZM110.828 110.909C129.172 92.5359 153.63 82.2009 179.618 82.2009C205.605 82.2009 230.064 92.1531 248.408 110.909C248.79 111.292 249.554 112.057 249.936 112.44H183.057C165.095 112.44 148.28 119.33 135.669 131.962C125.732 141.914 119.236 154.545 116.943 168.325H83.3118C85.6051 146.89 95.1593 126.986 110.828 110.909ZM179.618 277.416C153.63 277.416 129.172 267.464 110.828 248.708C95.1593 233.014 85.6051 213.11 83.3118 191.292H117.325C119.618 205.072 126.115 217.703 136.051 227.656C148.662 240.287 165.478 247.177 183.44 247.177H250.701C250.319 247.942 249.554 248.325 249.172 248.708C230.064 267.082 205.605 277.416 179.618 277.416Z" fill="white"/>
</g>
<defs>
<clipPath id="clip0_42_138">
<rect width="240" height="240" fill="white" transform="translate(60 60)"/>
</clipPath>
</defs>
</svg>
